<svg xmlns="http://www.w3.org/2000/svg" viewBox="0 0 612 792">
  <title>Untitled-1</title>
  <g id="Layer_2" data-name="Layer 2">
    <path d="M506,396.37a84.24,84.24,0,0,1-13.17,46,97.19,97.19,0,0,1-35.11,33.18q-21.95,12.35-49.26,12.35H362q.72-22.87,1.45-45.75h45q20.49,0,34.63-13.5t14.14-32.26q0-18.75-14.14-32.25t-34.63-13.5h-199a99.09,99.09,0,0,1-49-12.35,96.66,96.66,0,0,1-35.36-33.18,86.85,86.85,0,0,1,0-92A96.63,96.63,0,0,1,160.48,180a99,99,0,0,1,49-12.35H481.62v45.75H209.49a48.49,48.49,0,0,0-34.38,13.5q-14.38,13.5-14.39,32.25t14.39,32.26a48.49,48.49,0,0,0,34.38,13.5h199q27.32,0,49.26,12.35a97.16,97.16,0,0,1,35.11,33.17A84.29,84.29,0,0,1,506,396.37Z" fill="#fff"/>
    <path d="M362,624.39H212.62q-24.18,0-43.71-9.55A100.61,100.61,0,0,1,135.3,588.3a123.07,123.07,0,0,1-21.68-39.46,155.81,155.81,0,0,1,0-96.26,125.27,125.27,0,0,1,21.68-39.64,99.65,99.65,0,0,1,33.61-26.72q19.53-9.56,43.71-9.55H362v35.39H212.62q-22.85,0-39.24,11.85t-25.33,32q-8.94,20.18-8.94,44.59T148.05,545q8.94,20,25.33,32t39.24,12H362Z" fill="#fff"/>
    <circle cx="446.32" cy="589.4" r="34.99" fill="none" stroke="#fff" stroke-miterlimit="10" stroke-width="4"/>
    <path d="M462,601.82h-4.73l-7.36-7H439.13v-3.47h14.09a5,5,0,0,0,2.66-.72,5.35,5.35,0,0,0,1.89-1.92,5.17,5.17,0,0,0,.7-2.65,5.11,5.11,0,0,0-.7-2.66,5.18,5.18,0,0,0-4.55-2.6H437.16v21h-3.5V577.29h19.56a8.56,8.56,0,0,1,4.41,1.17,8.86,8.86,0,0,1,3.18,3.17,8.94,8.94,0,0,1,.21,8.45,8.78,8.78,0,0,1-2.63,3.07,9,9,0,0,1-3.77,1.56Z" fill="#fff"/>
  </g>
</svg>
